# xmcd
#
# Track frame offsets:
# 150
# 12975
# 25881
# 40061
# 54458
# 68094
# 82405
# 96606
# 110726
# 123336
# 135126
# 147024
# 161567
# 174245
# 187779
# 200335
# 214463
# 226452
# 240793
# 254405
# 266647
# 278549
# 291502
# 305076
# 317510
#
# Disc length: 4403 seconds
#
#
# Revision: 0
# Processed by: cddbd v1.5.1PL0 Copyright (c) Steve Scherf et al.
# Submitted via: FreeRIP 2.941 
#
DISCID=67113119
DTITLE=Ivory Joe Hunter - Since I Met You Baby
DYEAR=1900
DGENRE=Blues
TTITLE0=Since I Met You Baby
TTITLE1=Guess Who
TTITLE2=Blue Moon
TTITLE3=I Almost Lost My Mind
TTITLE4=Waiting In Vain
TTITLE5=I Need You So
TTITLE6=It's A Sin
TTITLE7=If You See My Baby
TTITLE8=The Big Bounce
TTITLE9=I Get That Lonesome Feeling
TTITLE10=I Feel So Good
TTITLE11=I Thought I Had Lived
TTITLE12=SP Blues
TTITLE13=We're Gonna Boogie
TTITLE14=I Quit My Pretty Mama
TTITLE15=Don't Make Me Cry
TTITLE16=Wrong Woman Blues
TTITLE17=Tell Her For Me
TTITLE18=Rocking Chair Boogie
TTITLE19=Don't You Believe Her
TTITLE20=Is My Pop In There?
TTITLE21=Do You Miss Me?
TTITLE22=Old Man's Boogie
TTITLE23=Why Fool Yourself
TTITLE24=I Found My Baby
EXTD=Pacific CD #621
EXTT0=
EXTT1=
EXTT2=
EXTT3=
EXTT4=
EXTT5=
EXTT6=
EXTT7=
EXTT8=
EXTT9=
EXTT10=
EXTT11=
EXTT12=
EXTT13=
EXTT14=
EXTT15=
EXTT16=
EXTT17=
EXTT18=
EXTT19=
EXTT20=
EXTT21=
EXTT22=
EXTT23=
EXTT24=
PLAYORDER=
